<svg viewBox="0 0 17 20" xmlns="http://www.w3.org/2000/svg"><path d="M10.07 8.28h4.41v1.38h-4.4V8.28Zm0-3.45H17V6.2h-6.93V4.83Zm0-3.45H17v1.38h-6.93V1.38ZM5.04 20H2.52c-.33 0-.65-.15-.9-.4-.23-.26-.36-.61-.36-.98V13.8c-.33 0-.65-.14-.89-.4S0 12.78 0 12.4V8.28A2.2 2.2 0 0 1 .54 6.8c.18-.2.39-.34.62-.45.23-.1.48-.15.73-.14h3.78c.25 0 .5.04.73.14a2.06 2.06 0 0 1 1.03 1.12c.08.26.13.53.13.8v4.14c0 .37-.14.72-.37.98-.24.26-.56.4-.9.4v4.83c0 .37-.13.72-.36.97-.24.26-.56.4-.9.41ZM1.89 7.59c-.08 0-.17 0-.25.04a.6.6 0 0 0-.2.15.7.7 0 0 0-.17.5v4.13h1.25v6.21h2.52v-6.2H6.3V8.27a.7.7 0 0 0-.18-.5.6.6 0 0 0-.2-.15.55.55 0 0 0-.25-.04H1.89Zm1.89-2.07c-.5 0-.99-.16-1.4-.47-.42-.3-.74-.73-.93-1.24a3 3 0 0 1 .55-3c.35-.39.8-.65 1.29-.76.49-.1 1-.05 1.45.16.46.2.86.56 1.13 1.02a2.95 2.95 0 0 1-.31 3.48c-.48.51-1.11.8-1.78.8Zm0-4.14c-.25 0-.5.08-.7.23-.2.15-.37.37-.47.62a1.5 1.5 0 0 0 .28 1.5 1.16 1.16 0 0 0 1.37.3c.23-.1.43-.28.57-.5a1.47 1.47 0 0 0-.16-1.75c-.24-.25-.56-.4-.9-.4Z"/></svg>
