<svg width="40" height="41" viewBox="0 0 40 41" fill="none" xmlns="http://www.w3.org/2000/svg"><g clip-path="url(#a)" fill="#0115C6"><path d="M10.85 1.04a12.87 12.87 0 0 0 .06 21.68 10.85 10.85 0 0 1-7.73-18.5 10.85 10.85 0 0 1 7.67-3.18Z"/><path d="m14.97 15.9-2.29-1.44-2.2 1.54.66-2.6L9 11.76l2.69-.18.88-2.54 1.01 2.5 2.68.06-2.07 1.72.79 2.58ZM21.48 8.79l-2.92-1.84-2.84 1.98.83-3.35-2.74-2.1 3.45-.23L18.4 0l1.32 3.21 3.42.06-2.67 2.23 1 3.29ZM33.67 4l2.82 2.82L5.78 37.49l-2.82-2.81L33.66 4ZM33.53 23.7a10.83 10.83 0 0 1-17.28 8.73l15.17-15.15a10.8 10.8 0 0 1 2.11 6.42ZM33.4 31.35l2.26-5.46 4.34 5-6.6.46ZM35.66 21.57l-2.25-5.47 6.59.47-4.34 5ZM24.85 36.67l5.47-2.27-.48 6.6-4.99-4.33ZM15.05 34.4l5.46 2.27-4.99 4.31-.47-6.58Z"/></g><defs><clipPath id="a"><path fill="#fff" d="M0 0h40v41H0z"/></clipPath></defs></svg>
