<svg width="40" height="41" viewBox="0 0 40 41" fill="none" xmlns="http://www.w3.org/2000/svg"><g clip-path="url(#a)" fill="#FFC700"><path d="M33.53 23.7a10.83 10.83 0 0 1-17.28 8.73l15.17-15.15a10.8 10.8 0 0 1 2.11 6.42ZM33.4 31.35l2.26-5.46 4.34 5-6.6.46ZM35.66 21.57l-2.25-5.47 6.59.47-4.34 5ZM24.85 36.67l5.47-2.27-.48 6.6-4.99-4.33ZM15.05 34.4l5.46 2.27-4.99 4.31-.47-6.58ZM33.67 4l2.82 2.82L5.78 37.49l-2.82-2.81L33.66 4Z"/><path fill-rule="evenodd" clip-rule="evenodd" d="m18.56 6.95 2.92 1.84-1-3.3 2.66-2.22-3.42-.06L18.4 0l-1.14 3.25-3.45.24 2.74 2.09-.83 3.35 2.84-1.98Zm-5.88 7.51 2.29 1.44-.79-2.58 2.07-1.72-2.68-.05-1-2.5-.9 2.53-2.68.18 2.15 1.64-.67 2.6 2.21-1.54Z"/><path d="M10.85 1.04a12.87 12.87 0 0 0 .06 21.68 10.85 10.85 0 0 1-7.73-18.5 10.85 10.85 0 0 1 7.67-3.18Z"/></g><defs><clipPath id="a"><path fill="#fff" d="M0 0h40v41H0z"/></clipPath></defs></svg>
